<?xml version="1.0" encoding="UTF-8"?>
<svg xmlns="http://www.w3.org/2000/svg" xmlns:xlink="http://www.w3.org/1999/xlink" width="120px" height="px" viewBox="0 0 121 18" version="1.1">
<g id="surface1">
<path style=" stroke:none;fill-rule:evenodd;fill:rgb(16.078431%,24.313725%,25.098039%);fill-opacity:1;" d="M 29.507812 5.515625 C 28.210938 5.515625 27.101562 5.980469 26.175781 6.726562 L 26.175781 5.703125 L 23.027344 5.703125 L 23.027344 17.695312 L 26.265625 17.695312 L 26.265625 10.070312 C 26.730469 9.421875 27.839844 8.585938 29.230469 8.585938 C 29.691406 8.585938 30.15625 8.675781 30.523438 8.769531 L 30.523438 5.703125 C 30.15625 5.609375 29.785156 5.515625 29.507812 5.515625 Z M 29.507812 5.515625 "/>
<path style=" stroke:none;fill-rule:evenodd;fill:rgb(16.078431%,24.313725%,25.098039%);fill-opacity:1;" d="M 1.636719 13.972656 C 2.46875 14.71875 3.765625 15.183594 4.875 15.183594 C 5.707031 15.183594 6.449219 14.71875 6.449219 14.160156 C 6.449219 12.300781 0.617188 12.953125 0.617188 9.140625 C 0.617188 6.816406 2.839844 5.421875 5.152344 5.421875 C 6.726562 5.421875 8.394531 5.980469 9.226562 6.628906 L 7.746094 8.953125 C 7.097656 8.582031 6.355469 8.117188 5.429688 8.117188 C 4.503906 8.117188 3.855469 8.488281 3.855469 9.140625 C 3.855469 10.71875 9.691406 10.070312 9.691406 14.253906 C 9.691406 16.578125 7.46875 17.972656 4.96875 17.972656 C 3.300781 17.972656 1.542969 17.414062 0.15625 16.390625 Z M 1.636719 13.972656 "/>
<path style=" stroke:none;fill-rule:evenodd;fill:rgb(16.078431%,24.313725%,25.098039%);fill-opacity:1;" d="M 21.640625 11.558594 C 21.640625 8.210938 19.328125 5.421875 15.992188 5.421875 C 12.476562 5.421875 10.160156 8.394531 10.160156 11.648438 C 10.160156 15.460938 12.847656 17.878906 16.363281 17.878906 C 18.214844 17.878906 20.066406 17.132812 21.269531 15.738281 L 19.417969 13.882812 C 18.863281 14.53125 17.753906 15.273438 16.457031 15.273438 C 14.789062 15.273438 13.402344 14.066406 13.214844 12.394531 L 21.457031 12.394531 C 21.640625 12.207031 21.640625 11.929688 21.640625 11.558594 Z M 13.492188 10.164062 C 13.679688 9.046875 14.789062 8.023438 16.085938 8.023438 C 17.382812 8.023438 18.308594 9.046875 18.492188 10.164062 Z M 13.492188 10.164062 "/>
<path style=" stroke:none;fill-rule:evenodd;fill:rgb(16.078431%,24.313725%,25.098039%);fill-opacity:1;" d="M 44.59375 5.707031 L 39.132812 17.699219 L 36.910156 17.699219 L 31.449219 5.707031 L 34.6875 5.707031 L 38.019531 13.050781 L 41.261719 5.707031 Z M 44.59375 5.707031 "/>
<path style=" stroke:none;fill-rule:evenodd;fill:rgb(16.078431%,24.313725%,25.098039%);fill-opacity:1;" d="M 47.269531 0.0351562 C 48.472656 0.0351562 49.398438 0.964844 49.398438 2.078125 C 49.398438 3.289062 48.472656 4.125 47.269531 4.125 C 46.066406 4.125 45.234375 3.195312 45.234375 2.078125 C 45.234375 0.871094 46.066406 0.0351562 47.269531 0.0351562 Z M 47.269531 0.0351562 "/>
<path style=" stroke:none;fill-rule:nonzero;fill:rgb(16.078431%,24.313725%,25.098039%);fill-opacity:1;" d="M 48.941406 5.707031 L 45.703125 5.707031 L 45.703125 17.699219 L 48.941406 17.699219 Z M 48.941406 5.707031 "/>
<path style=" stroke:none;fill-rule:evenodd;fill:rgb(16.078431%,24.313725%,25.098039%);fill-opacity:1;" d="M 62.089844 15.183594 C 60.699219 17.042969 58.941406 17.878906 56.71875 17.878906 C 53.015625 17.878906 50.332031 15.089844 50.332031 11.648438 C 50.332031 8.117188 53.109375 5.421875 56.71875 5.421875 C 58.847656 5.421875 60.609375 6.445312 61.71875 7.839844 L 59.589844 9.789062 C 58.941406 8.953125 58.015625 8.394531 56.90625 8.394531 C 55.054688 8.394531 53.664062 9.882812 53.664062 11.648438 C 53.664062 13.507812 54.960938 14.902344 56.90625 14.902344 C 58.203125 14.902344 59.21875 14.160156 59.773438 13.324219 Z M 62.089844 15.183594 "/>
<path style=" stroke:none;fill-rule:evenodd;fill:rgb(16.078431%,24.313725%,25.098039%);fill-opacity:1;" d="M 73.652344 15.738281 C 72.449219 17.132812 70.597656 17.878906 68.746094 17.878906 C 65.230469 17.878906 62.546875 15.460938 62.546875 11.648438 C 62.546875 8.304688 64.765625 5.421875 68.378906 5.421875 C 71.617188 5.421875 74.023438 8.210938 74.023438 11.558594 C 74.023438 11.929688 74.023438 12.207031 73.933594 12.488281 L 65.601562 12.488281 C 65.785156 14.160156 67.171875 15.367188 68.839844 15.367188 C 70.136719 15.367188 71.246094 14.625 71.800781 13.972656 Z M 70.691406 10.164062 C 70.597656 9.140625 69.671875 8.023438 68.285156 8.023438 C 66.988281 8.023438 65.878906 9.046875 65.691406 10.164062 Z M 70.691406 10.164062 "/>
<path style=" stroke:none;fill-rule:evenodd;fill:rgb(16.078431%,24.313725%,25.098039%);fill-opacity:1;" d="M 75.242188 17.695312 L 75.242188 5.703125 L 78.296875 5.703125 L 78.296875 6.726562 C 79.222656 5.980469 80.332031 5.515625 81.628906 5.515625 C 83.296875 5.515625 84.777344 6.261719 85.796875 7.46875 C 86.535156 8.398438 87.089844 9.605469 87.089844 11.652344 L 87.089844 17.789062 L 83.851562 17.789062 L 83.851562 11.375 C 83.851562 10.164062 83.574219 9.515625 83.109375 9.140625 C 82.648438 8.675781 82.09375 8.398438 81.257812 8.398438 C 79.960938 8.398438 78.851562 9.234375 78.296875 9.886719 L 78.296875 17.695312 Z M 75.242188 17.695312 "/>
<path style=" stroke:none;fill-rule:evenodd;fill:rgb(50.588235%,70.980392%,63.137255%);fill-opacity:1;" d="M 95.332031 5.429688 C 91.445312 5.429688 88.390625 8.496094 88.390625 12.402344 C 88.390625 14.445312 89.222656 16.304688 90.519531 17.605469 C 90.980469 18.070312 91.816406 18.070312 92.371094 17.699219 C 93.113281 17.046875 94.222656 16.675781 95.332031 16.675781 C 96.535156 16.675781 97.460938 17.046875 98.296875 17.699219 C 98.851562 18.164062 99.589844 18.070312 100.148438 17.511719 C 101.441406 16.210938 102.277344 14.445312 102.277344 12.402344 C 102.183594 8.589844 99.128906 5.429688 95.332031 5.429688 Z M 95.242188 16.027344 C 93.113281 16.027344 91.722656 14.445312 91.722656 12.492188 C 91.722656 10.542969 93.113281 8.960938 95.242188 8.960938 C 97.371094 8.960938 98.757812 10.542969 98.757812 12.492188 C 98.757812 14.445312 97.371094 16.027344 95.242188 16.027344 Z M 95.242188 16.027344 "/>
<path style=" stroke:none;fill-rule:evenodd;fill:rgb(16.078431%,24.313725%,25.098039%);fill-opacity:1;" d="M 101.4375 5.707031 L 104.582031 5.707031 L 107.175781 12.585938 L 109.769531 5.707031 L 112.453125 5.707031 L 114.953125 12.585938 L 117.542969 5.707031 L 120.785156 5.707031 L 116.0625 17.699219 L 113.65625 17.699219 L 111.0625 10.910156 L 108.566406 17.699219 L 106.15625 17.699219 Z M 101.4375 5.707031 "/>
</g>
</svg>
